LG_walk_Faster01																		
version=1																		
nRows=53																		
nColumns=19																		
inDegrees=yes																		
endheader																		
time	ground_force2_vx	ground_force2_vy	ground_force2_vz	ground_force2_px	ground_force2_py	ground_force2_pz	ground_torque2_x	ground_torque2_y	ground_torque2_z	ground_force1_vx	ground_force1_vy	ground_force1_vz	ground_force1_px	ground_force1_py	ground_force1_pz	ground_torque1_x	ground_torque1_y	ground_torque1_z
4.705	-49.752827	702.563416	137.443939	0.130982	0	-0.188917	5.00E-06	1.907788	9.00E-06	-13.896901	333.622589	-36.435501	-0.131682	0	0.3346	-7.00E-06	0.665729	-2.00E-06
4.706	-48.972874	698.598511	137.757706	0.130982	0	-0.188917	8.00E-06	1.978701	9.00E-06	-14.761199	333.622589	-37.924145	-0.129731	0	0.3346	-6.00E-06	0.784516	-2.00E-06
4.707	-47.800781	696.172302	137.836075	0.130982	0	-0.188411	1.00E-05	1.839275	5.00E-06	-15.778314	333.241089	-39.412182	-0.129731	0	0.335906	-7.00E-06	0.862181	-2.00E-06
4.708	-47.325737	689.61731	137.836075	0.131102	0	-0.188362	9.00E-06	1.859924	1.00E-06	-17.577543	333.241089	-39.412182	-0.130046	0	0.336345	-6.00E-06	0.862181	-2.00E-06
4.709	-45.524342	684.795715	137.836075	0.130964	0	-0.188362	1.30E-05	1.859924	1.00E-06	-18.361824	335.154602	-39.48999	-0.130896	0	0.337089	-7.00E-06	0.827605	-1.00E-06
4.71	-45.213657	682.87323	137.914917	0.131102	0	-0.188479	9.00E-06	1.920954	4.00E-06	-19.063927	349.072174	-39.333412	-0.132576	0	0.341782	0.00E+00	0.783081	-1.00E-06
4.711	-43.806572	675.465393	137.209503	0.13107	0	-0.188479	7.00E-06	1.920954	4.00E-06	-19.528147	357.995514	-38.315193	-0.13271	0	0.342146	-2.00E-06	0.759162	-2.00E-06
4.712	-42.868031	669.080078	136.975204	0.13107	0	-0.188183	6.00E-06	1.869655	7.00E-06	-20.295111	370.701263	-37.767685	-0.133533	0	0.342764	-2.00E-06	0.759162	-2.00E-06
4.713	-41.692326	663.374451	136.897034	0.130971	0	-0.188162	6.00E-06	1.834695	1.00E-06	-20.381622	385.825012	-37.767281	-0.134585	0	0.344107	-8.00E-06	0.767531	-1.00E-06
4.714	-40.674492	657.00415	136.897034	0.130941	0	-0.188183	2.00E-06	1.779897	-2.00E-06	-21.075787	394.750275	-36.984379	-0.135222	0	0.345214	-8.00E-06	0.767531	-1.00E-06
4.715	-39.816689	652.505798	136.349319	0.130941	0	-0.188137	1.00E-05	1.774089	-2.00E-06	-21.152916	401.10965	-36.984299	-0.136186	0	0.346368	-5.00E-06	0.767531	-2.00E-06
4.716	-38.486725	644.561768	135.800446	0.130786	0	-0.188137	2.00E-06	1.770886	2.00E-06	-22.405025	404.892822	-36.278721	-0.136186	0	0.347251	-2.00E-06	0.794458	-4.00E-06
4.717	-37.703888	639.388916	136.349319	0.130705	0	-0.187391	1.00E-06	1.770886	5.00E-06	-22.48432	404.892822	-36.278721	-0.136186	0	0.347419	-2.00E-06	0.807846	-4.00E-06
4.718	-36.685329	631.447571	135.722961	0.130786	0	-0.187305	1.00E-06	1.69495	2.00E-06	-22.714987	404.892822	-36.278721	-0.136206	0	0.347419	-4.00E-06	0.829631	-4.00E-06
4.719	-35.199669	626.802612	135.722961	0.131029	0	-0.187301	1.00E-06	1.69495	8.00E-06	-22.714987	405.414307	-36.670414	-0.136206	0	0.348174	-1.00E-05	0.876357	-2.00E-06
4.72	-34.495403	619.889282	135.488129	0.131029	0	-0.187068	1.00E-06	1.69495	1.00E-06	-22.714987	412.796234	-37.296978	-0.136206	0	0.348814	-4.00E-06	0.876357	-2.00E-06
4.721	-34.186165	613.325378	135.174652	0.131029	0	-0.18686	5.00E-06	1.834189	4.00E-06	-22.641466	415.707642	-38.4725	-0.135746	0	0.348859	-1.40E-05	0.876357	-1.00E-06
4.722	-32.544075	607.977295	134.469833	0.1307	0	-0.1868	5.00E-06	1.841997	3.00E-06	-21.92926	421.021027	-39.177795	-0.136288	0	0.348918	-7.00E-06	1.006952	-2.00E-06
4.723	-30.978399	598.667114	133.764893	0.1307	0	-0.186601	5.00E-06	1.841997	3.00E-06	-21.92926	422.570099	-40.823219	-0.136288	0	0.348859	-7.00E-06	1.006952	-2.00E-06
4.724	-30.11771	598.660889	133.373245	0.130593	0	-0.186304	4.00E-06	1.841997	3.00E-06	-21.92926	422.571655	-41.763306	-0.136288	0	0.348647	-6.00E-06	1.006952	-3.00E-06
4.725	-29.022743	586.23584	132.589981	0.130593	0	-0.185975	4.00E-06	1.810696	4.00E-06	-20.91431	424.099121	-43.408447	-0.135756	0	0.348647	-6.00E-06	1.113343	-5.00E-06
4.726	-28.630602	578.641357	131.571564	0.130608	0	-0.186067	5.00E-06	1.656568	4.00E-06	-19.979378	424.099121	-44.191833	-0.135027	0	0.34856	-5.00E-06	1.113343	-7.00E-06
4.727	-27.302807	570.521423	130.631714	0.130646	0	-0.186067	5.00E-06	1.65508	2.00E-06	-18.418751	419.296875	-45.053631	-0.135027	0	0.347395	-4.00E-06	1.113343	-5.00E-06
4.728	-26.129271	566.541504	129.848251	0.131123	0	-0.186263	5.00E-06	1.643037	2.00E-06	-18.101574	419.296875	-46.463821	-0.135059	0	0.347395	-4.00E-06	1.242585	-2.00E-06
4.729	-25.032139	556.377197	129.456635	0.131202	0	-0.186263	7.00E-06	1.575847	2.00E-06	-17.087345	425.474976	-46.620522	-0.135064	0	0.34803	-1.00E-05	1.242585	-2.00E-06
4.73	-24.094322	549.127502	128.203156	0.131123	0	-0.186133	7.00E-06	1.575847	7.00E-06	-15.993824	428.739746	-47.560772	-0.135174	0	0.348152	-1.30E-05	1.207632	-2.00E-06
4.731	-23.237236	540.837524	127.498253	0.130879	0	-0.185986	7.00E-06	1.556989	7.00E-06	-14.823174	432.005615	-48.109207	-0.135523	0	0.348637	-1.30E-05	1.128969	-2.00E-06
4.732	-21.98513	531.008057	125.539711	0.130879	0	-0.185986	4.00E-06	1.520933	7.00E-06	-13.183252	432.005615	-48.500862	-0.135546	0	0.349048	-8.00E-06	1.127095	-1.00E-06
4.733	-21.438728	524.611938	124.442886	0.131155	0	-0.18562	4.00E-06	1.495355	4.00E-06	-11.933308	434.095795	-48.657516	-0.13611	0	0.350437	-8.00E-06	1.128969	-3.00E-06
4.734	-19.95018	515.121582	123.032608	0.131272	0	-0.18572	-1.00E-06	1.495355	3.00E-06	-10.921246	432.897614	-48.735245	-0.136677	0	0.350913	-8.00E-06	1.096506	-3.00E-06
4.735	-19.250244	508.738525	121.935822	0.131272	0	-0.185683	-1.00E-06	1.530049	1.00E-06	-9.133559	433.432251	-49.283195	-0.136677	0	0.352305	-1.00E-05	1.092209	-6.00E-06
4.736	-18.156723	499.412079	120.290558	0.130818	0	-0.185683	1.00E-06	1.530049	3.00E-06	-8.353607	432.897614	-50.849731	-0.137208	0	0.35314	-1.00E-05	1.041864	-6.00E-06
4.737	-16.669617	489.582275	118.802109	0.130818	0	-0.185362	7.00E-06	1.530093	1.00E-06	-8.042203	430.861725	-51.320034	-0.137692	0	0.354554	-1.00E-05	1.041864	-6.00E-06
4.738	-15.968958	481.631287	116.530045	0.130717	0	-0.18446	7.00E-06	1.530093	5.00E-06	-5.5452	430.861725	-51.554943	-0.137997	0	0.35456	-5.00E-06	0.895802	-3.00E-06
4.739	-14.87255	468.868805	115.119659	0.130412	0	-0.184165	1.00E-06	1.530093	1.00E-06	-4.761639	431.733856	-51.555145	-0.138211	0	0.355218	0.00E+00	0.880804	-3.00E-06
4.74	-14.167562	460.424103	113.709549	0.130412	0	-0.183774	1.00E-06	1.411443	5.00E-06	-3.821655	438.085876	-52.887291	-0.138423	0	0.355964	-1.00E-06	0.880804	-1.00E-06
4.741	-12.839045	451.105377	111.594177	0.130442	0	-0.183774	6.00E-06	1.411443	0.00E+00	-2.178847	440.836426	-53.200649	-0.138649	0	0.355964	-1.00E-06	0.898286	-3.00E-06
4.742	-11.512691	442.978516	110.10582	0.130493	0	-0.183749	6.00E-06	1.407998	0.00E+00	-1.632447	441.01004	-54.454384	-0.138664	0	0.355684	-9.00E-06	0.982281	-1.00E-06
4.743	-11.121272	433.320709	107.912041	0.130442	0	-0.1833	4.00E-06	1.318883	0	-1.079553	444.979553	-54.768024	-0.138838	0	0.355542	-9.00E-06	1.010506	0
4.744	-10.338432	421.077026	106.815086	0.130751	0	-0.182425	-1.00E-06	1.318883	0	1.028917	449.964233	-54.846313	-0.139016	0	0.355542	-1.10E-05	1.024879	0
4.745	-8.777084	412.969849	104.778091	0.131019	0	-0.182425	4.00E-06	1.355076	3.00E-06	1.573874	450.810425	-54.924767	-0.139101	0	0.35611	-9.00E-06	1.010506	-5.00E-06
4.746	-7.998573	405.539185	103.681389	0.131019	0	-0.182253	3.00E-06	1.38192	3.00E-06	2.353105	450.810425	-56.88303	-0.139101	0	0.3575	-9.00E-06	1.024879	-5.00E-06
4.747	-7.295031	392.765106	102.349525	0.131328	0	-0.182253	3.00E-06	1.38192	4.00E-06	3.526642	450.810425	-56.88303	-0.139364	0	0.357977	-9.00E-06	1.065673	-4.00E-06
4.748	-6.280081	383.793945	99.999161	0.130873	0	-0.181243	3.00E-06	1.315191	2.00E-06	5.322987	453.907715	-57.196354	-0.139776	0	0.358394	-9.00E-06	1.099502	-4.00E-06
4.749	-5.495075	372.409637	98.588852	0.130774	0	-0.180404	3.00E-06	1.315191	2.00E-06	5.557983	458.379395	-57.431381	-0.140156	0	0.358944	-9.00E-06	1.099502	-4.00E-06
4.75	-4.558702	361.185028	96.943344	0.130774	0	-0.180404	3.00E-06	1.235767	2.00E-06	7.590767	469.212769	-58.606945	-0.140211	0	0.359226	-1.10E-05	1.012087	-4.00E-06
4.751	-3.618715	353.409149	94.828064	0.130867	0	-0.180278	2.00E-06	1.324652	0.00E+00	9.69996	471.609283	-60.095707	-0.140319	0	0.359226	-1.10E-05	0.982968	-3.00E-06
4.752	-2.29525	340.645111	92.477631	0.130867	0	-0.181098	2.00E-06	1.280136	4.00E-06	10.717073	478.153473	-61.741215	-0.140319	0	0.359382	-1.10E-05	0.982968	-2.00E-06
4.753	-2.214514	330.278351	91.224174	0.130867	0	-0.180422	2.00E-06	1.280136	3.00E-06	13.144163	486.070007	-62.133068	-0.1408	0	0.359382	-1.20E-05	1.059459	-2.00E-06
4.754	-1.74452	318.891724	89.187096	0.131169	0	-0.180462	3.00E-06	1.203792	4.00E-06	15.25552	493.098267	-63.62207	-0.14128	0	0.359382	-8.00E-06	1.059459	-3.00E-06
4.755	-0.183893	308.183197	86.758171	0.131423	0	-0.180462	3.00E-06	1.10688	3.00E-06	17.209732	507.189423	-63.935555	-0.141376	0	0.360051	-1.20E-05	0.932201	-3.00E-06
4.756	0.128233	298.008881	84.329239	0.131461	0	-0.180783	3.00E-06	1.10688	3.00E-06	18.223238	508.967041	-66.051086	-0.142178	0	0.361396	-1.20E-05	0.932201	1.00E-06
4.757	0.20536	286.612244	82.370453	0.132144	0	-0.180783	4.00E-06	0.983795	0.00E+00	20.17745	512.171753	-68.244736	-0.142164	0	0.361768	-1.20E-05	0.961183	1.00E-06
